<svg width="32" height="32" viewBox="0 0 24 24" fill="none" xmlns="http://www.w3.org/2000/svg">
  <defs>
    <linearGradient id="bookmarkGradient" x1="0%" y1="0%" x2="100%" y2="100%">
      <stop offset="0%" stop-color="#4F7DFF" />
      <stop offset="100%" stop-color="#2B4FD9" />
    </linearGradient>
  </defs>
  <!-- Bookmark shape -->
  <path
    d="M4 3C4 2.44772 4.44772 2 5 2H19C19.5523 2 20 2.44772 20 3V21.5C20 21.8466 19.7934 22.1598 19.4743 22.2966C19.1552 22.4334 18.7843 22.3683 18.5303 22.1303L12 16.0607L5.46967 22.1303C5.21575 22.3683 4.84479 22.4334 4.52567 22.2966C4.20656 22.1598 4 21.8466 4 21.5V3Z"
    fill="url(#bookmarkGradient)"
  />
  <!-- Star sparkle -->
  <path
    d="M17.5 5L18.2 6.6L20 7L18.2 7.4L17.5 9L16.8 7.4L15 7L16.8 6.6L17.5 5Z"
    fill="#FF4F8B"
  />
</svg>
