<svg width="32" height="32" viewBox="0 0 24 24" fill="none" xmlns="http://www.w3.org/2000/svg">
  <style>
    .bg { fill: #0a0a0a; }
    .fg { fill: #fafafa; }
    @media (prefers-color-scheme: light) {
      .bg { fill: #fafafa; }
      .fg { fill: #0a0a0a; }
    }
  </style>
  <!-- Bookmark shape background -->
  <path
    class="bg"
    d="M4 3C4 2.44772 4.44772 2 5 2H19C19.5523 2 20 2.44772 20 3V21.5C20 21.8466 19.7934 22.1598 19.4743 22.2966C19.1552 22.4334 18.7843 22.3683 18.5303 22.1303L12 16.0607L5.46967 22.1303C5.21575 22.3683 4.84479 22.4334 4.52567 22.2966C4.20656 22.1598 4 21.8466 4 21.5V3Z"
  />
  <!-- 4-box grid pattern - filling the bookmark shape -->
  <rect class="fg" x="5" y="3" width="6.5" height="6.5" rx="1" fill-opacity="0.9"/>
  <rect class="fg" x="12.5" y="3" width="6.5" height="6.5" rx="1" fill-opacity="0.6"/>
  <rect class="fg" x="5" y="10.5" width="6.5" height="6.5" rx="1" fill-opacity="0.4"/>
  <rect class="fg" x="12.5" y="10.5" width="6.5" height="6.5" rx="1" fill-opacity="0.7"/>
</svg>
