<svg width="18" height="18" viewBox="0 0 18 18" xmlns="http://www.w3.org/2000/svg">
  <g fill="none" fill-rule="evenodd">
    <path
      d="M17.64 9.204c0-.638-.057-1.252-.164-1.84H9v3.481h4.844a4.144 4.144 0 0 1-1.799 2.717v2.259h2.91c1.704-1.57 2.685-3.884 2.685-6.617Z"
      fill="#4285F4"
    />
    <path
      d="M9 18c2.43 0 4.467-.805 5.956-2.178l-2.91-2.259c-.805.54-1.834.86-3.046.86-2.343 0-4.328-1.582-5.036-3.71H.956v2.332A9 9 0 0 0 9 18Z"
      fill="#34A853"
    />
    <path
      d="M3.964 10.713A5.41 5.41 0 0 1 3.682 9c0-.598.103-1.178.282-1.713V4.955H.956A9 9 0 0 0 0 9c0 1.464.35 2.845.956 4.045l3.008-2.332Z"
      fill="#FBBC05"
    />
    <path
      d="M9 3.579c1.321 0 2.506.454 3.439 1.343l2.58-2.58C13.464.902 11.427 0 9 0A9 9 0 0 0 .956 4.955l3.008 2.332C4.672 5.159 6.657 3.579 9 3.579Z"
      fill="#EA4335"
    />
  </g>
</svg>

